<svg width="488" height="79" viewBox="0 0 488 79" fill="none" xmlns="http://www.w3.org/2000/svg">
<rect width="488" height="79" rx="23" fill="#2E3F5B"/>
<path d="M50.1352 19.5087C51.0486 16.7772 54.9122 16.7772 55.8255 19.5087L59.9244 31.7668C60.3336 32.9905 61.4793 33.8155 62.7696 33.8155H75.8466C78.7736 33.8155 79.9679 37.5781 77.5768 39.2662L67.1468 46.6296C66.0651 47.3933 65.612 48.7759 66.0319 50.0318L70.0505 62.0499C70.9697 64.7987 67.843 67.1237 65.4751 65.452L54.7106 57.8524C53.6733 57.1201 52.2874 57.1201 51.2502 57.8524L40.4856 65.452C38.1178 67.1237 34.9911 64.7987 35.9102 62.0498L39.9289 50.0318C40.3488 48.7759 39.8957 47.3933 38.8139 46.6296L28.384 39.2662C25.9928 37.5781 27.1872 33.8155 30.1142 33.8155H43.1912C44.4814 33.8155 45.6272 32.9905 46.0363 31.7668L50.1352 19.5087Z" fill="#2E3F5B"/>
<path d="M53.1352 15.5087C54.0486 12.7772 57.9122 12.7772 58.8255 15.5087L62.9244 27.7668C63.3336 28.9905 64.4793 29.8155 65.7696 29.8155H78.8466C81.7736 29.8155 82.9679 33.5781 80.5768 35.2662L70.1468 42.6296C69.0651 43.3933 68.612 44.7759 69.0319 46.0318L73.0505 58.0499C73.9697 60.7987 70.843 63.1237 68.4751 61.452L57.7106 53.8524C56.6733 53.1201 55.2874 53.1201 54.2502 53.8524L43.4856 61.452C41.1178 63.1237 37.9911 60.7987 38.9102 58.0498L42.9289 46.0318C43.3488 44.7759 42.8957 43.3933 41.8139 42.6296L31.384 35.2662C28.9928 33.5781 30.1872 29.8155 33.1142 29.8155H46.1912C47.4814 29.8155 48.6272 28.9905 49.0363 27.7668L53.1352 15.5087Z" fill="#FFF821"/>
<path d="M144.135 19.5087C145.049 16.7772 148.912 16.7772 149.826 19.5087L153.924 31.7668C154.334 32.9905 155.479 33.8155 156.77 33.8155H169.847C172.774 33.8155 173.968 37.5781 171.577 39.2662L161.147 46.6296C160.065 47.3933 159.612 48.7759 160.032 50.0318L164.051 62.0499C164.97 64.7987 161.843 67.1237 159.475 65.452L148.711 57.8524C147.673 57.1201 146.287 57.1201 145.25 57.8524L134.486 65.452C132.118 67.1237 128.991 64.7987 129.91 62.0498L133.929 50.0318C134.349 48.7759 133.896 47.3933 132.814 46.6296L122.384 39.2662C119.993 37.5781 121.187 33.8155 124.114 33.8155H137.191C138.481 33.8155 139.627 32.9905 140.036 31.7668L144.135 19.5087Z" fill="#2E3F5B"/>
<path d="M147.135 15.5087C148.049 12.7772 151.912 12.7772 152.826 15.5087L156.924 27.7668C157.334 28.9905 158.479 29.8155 159.77 29.8155H172.847C175.774 29.8155 176.968 33.5781 174.577 35.2662L164.147 42.6296C163.065 43.3933 162.612 44.7759 163.032 46.0318L167.051 58.0499C167.97 60.7987 164.843 63.1237 162.475 61.452L151.711 53.8524C150.673 53.1201 149.287 53.1201 148.25 53.8524L137.486 61.452C135.118 63.1237 131.991 60.7987 132.91 58.0498L136.929 46.0318C137.349 44.7759 136.896 43.3933 135.814 42.6296L125.384 35.2662C122.993 33.5781 124.187 29.8155 127.114 29.8155H140.191C141.481 29.8155 142.627 28.9905 143.036 27.7668L147.135 15.5087Z" fill="#FFF821"/>
<path d="M238.135 19.5087C239.049 16.7772 242.912 16.7772 243.826 19.5087L247.924 31.7668C248.334 32.9905 249.479 33.8155 250.77 33.8155H263.847C266.774 33.8155 267.968 37.5781 265.577 39.2662L255.147 46.6296C254.065 47.3933 253.612 48.7759 254.032 50.0318L258.051 62.0499C258.97 64.7987 255.843 67.1237 253.475 65.452L242.711 57.8524C241.673 57.1201 240.287 57.1201 239.25 57.8524L228.486 65.452C226.118 67.1237 222.991 64.7987 223.91 62.0498L227.929 50.0318C228.349 48.7759 227.896 47.3933 226.814 46.6296L216.384 39.2662C213.993 37.5781 215.187 33.8155 218.114 33.8155H231.191C232.481 33.8155 233.627 32.9905 234.036 31.7668L238.135 19.5087Z" fill="#2E3F5B"/>
<path d="M241.135 15.5087C242.049 12.7772 245.912 12.7772 246.826 15.5087L250.924 27.7668C251.334 28.9905 252.479 29.8155 253.77 29.8155H266.847C269.774 29.8155 270.968 33.5781 268.577 35.2662L258.147 42.6296C257.065 43.3933 256.612 44.7759 257.032 46.0318L261.051 58.0499C261.97 60.7987 258.843 63.1237 256.475 61.452L245.711 53.8524C244.673 53.1201 243.287 53.1201 242.25 53.8524L231.486 61.452C229.118 63.1237 225.991 60.7987 226.91 58.0498L230.929 46.0318C231.349 44.7759 230.896 43.3933 229.814 42.6296L219.384 35.2662C216.993 33.5781 218.187 29.8155 221.114 29.8155H234.191C235.481 29.8155 236.627 28.9905 237.036 27.7668L241.135 15.5087Z" fill="#FFF821"/>
<path d="M332.135 19.5087C333.049 16.7772 336.912 16.7772 337.826 19.5087L341.924 31.7668C342.334 32.9905 343.479 33.8155 344.77 33.8155H357.847C360.774 33.8155 361.968 37.5781 359.577 39.2662L349.147 46.6296C348.065 47.3933 347.612 48.7759 348.032 50.0318L352.051 62.0499C352.97 64.7987 349.843 67.1237 347.475 65.452L336.711 57.8524C335.673 57.1201 334.287 57.1201 333.25 57.8524L322.486 65.452C320.118 67.1237 316.991 64.7987 317.91 62.0498L321.929 50.0318C322.349 48.7759 321.896 47.3933 320.814 46.6296L310.384 39.2662C307.993 37.5781 309.187 33.8155 312.114 33.8155H325.191C326.481 33.8155 327.627 32.9905 328.036 31.7668L332.135 19.5087Z" fill="#2E3F5B"/>
<path d="M335.135 15.5087C336.049 12.7772 339.912 12.7772 340.826 15.5087L344.924 27.7668C345.334 28.9905 346.479 29.8155 347.77 29.8155H360.847C363.774 29.8155 364.968 33.5781 362.577 35.2662L352.147 42.6296C351.065 43.3933 350.612 44.7759 351.032 46.0318L355.051 58.0499C355.97 60.7987 352.843 63.1237 350.475 61.452L339.711 53.8524C338.673 53.1201 337.287 53.1201 336.25 53.8524L325.486 61.452C323.118 63.1237 319.991 60.7987 320.91 58.0498L324.929 46.0318C325.349 44.7759 324.896 43.3933 323.814 42.6296L313.384 35.2662C310.993 33.5781 312.187 29.8155 315.114 29.8155H328.191C329.481 29.8155 330.627 28.9905 331.036 27.7668L335.135 15.5087Z" fill="#FFF821"/>
<path d="M426.135 19.5087C427.049 16.7772 430.912 16.7772 431.826 19.5087L435.924 31.7668C436.334 32.9905 437.479 33.8155 438.77 33.8155H451.847C454.774 33.8155 455.968 37.5781 453.577 39.2662L443.147 46.6296C442.065 47.3933 441.612 48.7759 442.032 50.0318L446.051 62.0499C446.97 64.7987 443.843 67.1237 441.475 65.452L430.711 57.8524C429.673 57.1201 428.287 57.1201 427.25 57.8524L416.486 65.452C414.118 67.1237 410.991 64.7987 411.91 62.0498L415.929 50.0318C416.349 48.7759 415.896 47.3933 414.814 46.6296L404.384 39.2662C401.993 37.5781 403.187 33.8155 406.114 33.8155H419.191C420.481 33.8155 421.627 32.9905 422.036 31.7668L426.135 19.5087Z" fill="#2E3F5B"/>
<path d="M429.135 15.5087C430.049 12.7772 433.912 12.7772 434.826 15.5087L438.924 27.7668C439.334 28.9905 440.479 29.8155 441.77 29.8155H454.847C457.774 29.8155 458.968 33.5781 456.577 35.2662L446.147 42.6296C445.065 43.3933 444.612 44.7759 445.032 46.0318L449.051 58.0499C449.97 60.7987 446.843 63.1237 444.475 61.452L433.711 53.8524C432.673 53.1201 431.287 53.1201 430.25 53.8524L419.486 61.452C417.118 63.1237 413.991 60.7987 414.91 58.0498L418.929 46.0318C419.349 44.7759 418.896 43.3933 417.814 42.6296L407.384 35.2662C404.993 33.5781 406.187 29.8155 409.114 29.8155H422.191C423.481 29.8155 424.627 28.9905 425.036 27.7668L429.135 15.5087Z" fill="#FFF821"/>
</svg>
